<mxfile host="app.diagrams.net" modified="2024-02-10T03:06:33.374Z" agent="Mozilla/5.0 (Windows NT 10.0; Win64; x64) AppleWebKit/537.36 (KHTML, like Gecko) Chrome/121.0.0.0 Safari/537.36" etag="m7S2_Y_YfcjwLxzGsJO9" version="23.1.2" type="device">
  <diagram name="Page-1" id="Lqc_3ks3c0-wwsuyn9GL">
    <mxGraphModel dx="1434" dy="772" grid="1" gridSize="10" guides="1" tooltips="1" connect="1" arrows="1" fold="1" page="1" pageScale="1" pageWidth="850" pageHeight="1100" math="0" shadow="0">
      <root>
        <mxCell id="0" />
        <mxCell id="1" parent="0" />
        <mxCell id="wII7rH0my5hPWLyxa01--19" value="" style="rounded=0;whiteSpace=wrap;html=1;" vertex="1" parent="1">
          <mxGeometry x="570" y="430" width="240" height="140" as="geometry" />
        </mxCell>
        <mxCell id="wII7rH0my5hPWLyxa01--18" value="" style="rounded=0;whiteSpace=wrap;html=1;" vertex="1" parent="1">
          <mxGeometry x="230" y="400" width="180" height="130" as="geometry" />
        </mxCell>
        <mxCell id="wII7rH0my5hPWLyxa01--8" style="edgeStyle=orthogonalEdgeStyle;rounded=0;orthogonalLoop=1;jettySize=auto;html=1;" edge="1" parent="1" source="wII7rH0my5hPWLyxa01--1" target="wII7rH0my5hPWLyxa01--7">
          <mxGeometry relative="1" as="geometry" />
        </mxCell>
        <mxCell id="wII7rH0my5hPWLyxa01--1" value="server" style="rounded=0;whiteSpace=wrap;html=1;" vertex="1" parent="1">
          <mxGeometry x="80" y="80" width="120" height="80" as="geometry" />
        </mxCell>
        <mxCell id="wII7rH0my5hPWLyxa01--5" value="" style="edgeStyle=orthogonalEdgeStyle;rounded=0;orthogonalLoop=1;jettySize=auto;html=1;" edge="1" parent="1" source="wII7rH0my5hPWLyxa01--2" target="wII7rH0my5hPWLyxa01--4">
          <mxGeometry relative="1" as="geometry" />
        </mxCell>
        <mxCell id="wII7rH0my5hPWLyxa01--2" value="client" style="rounded=0;whiteSpace=wrap;html=1;" vertex="1" parent="1">
          <mxGeometry x="560" y="80" width="120" height="80" as="geometry" />
        </mxCell>
        <mxCell id="wII7rH0my5hPWLyxa01--3" value="Authentication&amp;nbsp;" style="text;html=1;strokeColor=none;fillColor=none;align=center;verticalAlign=middle;whiteSpace=wrap;rounded=0;" vertex="1" parent="1">
          <mxGeometry x="390" y="10" width="110" height="30" as="geometry" />
        </mxCell>
        <mxCell id="wII7rH0my5hPWLyxa01--4" value="" style="whiteSpace=wrap;html=1;rounded=0;" vertex="1" parent="1">
          <mxGeometry x="560" y="240" width="120" height="70" as="geometry" />
        </mxCell>
        <mxCell id="wII7rH0my5hPWLyxa01--6" value="cred" style="text;html=1;align=center;verticalAlign=middle;resizable=0;points=[];autosize=1;strokeColor=none;fillColor=none;" vertex="1" parent="1">
          <mxGeometry x="595" y="260" width="50" height="30" as="geometry" />
        </mxCell>
        <mxCell id="wII7rH0my5hPWLyxa01--7" value="" style="shape=cylinder3;whiteSpace=wrap;html=1;boundedLbl=1;backgroundOutline=1;size=15;" vertex="1" parent="1">
          <mxGeometry x="110" y="250" width="60" height="80" as="geometry" />
        </mxCell>
        <mxCell id="wII7rH0my5hPWLyxa01--9" value="unique user identification&amp;nbsp;&lt;br&gt;aadhar&lt;br&gt;mobile&lt;br&gt;email&lt;br&gt;username" style="text;html=1;strokeColor=none;fillColor=none;align=center;verticalAlign=middle;whiteSpace=wrap;rounded=0;" vertex="1" parent="1">
          <mxGeometry x="920" y="40" width="140" height="120" as="geometry" />
        </mxCell>
        <mxCell id="wII7rH0my5hPWLyxa01--13" value="code /passward/ secret key" style="text;html=1;align=center;verticalAlign=middle;resizable=0;points=[];autosize=1;strokeColor=none;fillColor=none;" vertex="1" parent="1">
          <mxGeometry x="920" y="170" width="170" height="30" as="geometry" />
        </mxCell>
        <mxCell id="wII7rH0my5hPWLyxa01--15" value="cookie" style="text;html=1;strokeColor=none;fillColor=none;align=center;verticalAlign=middle;whiteSpace=wrap;rounded=0;" vertex="1" parent="1">
          <mxGeometry x="590" y="340" width="60" height="30" as="geometry" />
        </mxCell>
        <mxCell id="wII7rH0my5hPWLyxa01--16" value="session based authentication&amp;nbsp;" style="text;html=1;align=center;verticalAlign=middle;resizable=0;points=[];autosize=1;strokeColor=none;fillColor=none;" vertex="1" parent="1">
          <mxGeometry x="230" y="420" width="180" height="30" as="geometry" />
        </mxCell>
        <mxCell id="wII7rH0my5hPWLyxa01--17" value="token based authentication" style="text;html=1;align=center;verticalAlign=middle;resizable=0;points=[];autosize=1;strokeColor=none;fillColor=none;" vertex="1" parent="1">
          <mxGeometry x="605" y="450" width="170" height="30" as="geometry" />
        </mxCell>
      </root>
    </mxGraphModel>
  </diagram>
</mxfile>
